<svg width="16" height="15" viewBox="0 0 16 15" fill="none" xmlns="http://www.w3.org/2000/svg">
<path d="M8.36739 4.9689C7.00669 4.9689 5.89625 6.07934 5.89625 7.44004C5.89625 8.80074 7.00669 9.91118 8.36739 9.91118C9.72809 9.91118 10.8385 8.80074 10.8385 7.44004C10.8385 6.07934 9.72809 4.9689 8.36739 4.9689ZM15.7789 7.44004C15.7789 6.41673 15.7882 5.4027 15.7307 4.38124C15.6733 3.1948 15.4026 2.14183 14.535 1.27425C13.6656 0.404807 12.6145 0.136004 11.428 0.0785358C10.4047 0.0210675 9.39069 0.0303366 8.36924 0.0303366C7.34593 0.0303366 6.3319 0.0210675 5.31044 0.0785358C4.124 0.136004 3.07103 0.406661 2.20345 1.27425C1.33401 2.14369 1.0652 3.1948 1.00773 4.38124C0.950267 5.40455 0.959536 6.41859 0.959536 7.44004C0.959536 8.46149 0.950267 9.47738 1.00773 10.4988C1.0652 11.6853 1.33586 12.7382 2.20345 13.6058C3.07289 14.4753 4.124 14.7441 5.31044 14.8015C6.33375 14.859 7.34779 14.8497 8.36924 14.8497C9.39255 14.8497 10.4066 14.859 11.428 14.8015C12.6145 14.7441 13.6674 14.4734 14.535 13.6058C15.4045 12.7364 15.6733 11.6853 15.7307 10.4988C15.7901 9.47738 15.7789 8.46335 15.7789 7.44004ZM8.36739 11.2422C6.2633 11.2422 4.56521 9.54412 4.56521 7.44004C4.56521 5.33596 6.2633 3.63786 8.36739 3.63786C10.4715 3.63786 12.1696 5.33596 12.1696 7.44004C12.1696 9.54412 10.4715 11.2422 8.36739 11.2422ZM12.3253 4.37012C11.834 4.37012 11.4373 3.9734 11.4373 3.48214C11.4373 2.99088 11.834 2.59416 12.3253 2.59416C12.8165 2.59416 13.2133 2.99088 13.2133 3.48214C13.2134 3.59879 13.1905 3.71433 13.146 3.82213C13.1014 3.92993 13.036 4.02788 12.9535 4.11036C12.871 4.19285 12.7731 4.25825 12.6653 4.30283C12.5575 4.3474 12.4419 4.37027 12.3253 4.37012Z" fill="url(#paint0_linear_660_562)"/>
<defs>
<linearGradient id="paint0_linear_660_562" x1="0.958984" y1="0.465683" x2="7.88503" y2="10.9022" gradientUnits="userSpaceOnUse">
<stop stop-color="#FF2801"/>
<stop offset="1" stop-color="#FF6B0A"/>
</linearGradient>
</defs>
</svg>
