<svg width="19" height="16" viewBox="0 0 19 16" fill="none" xmlns="http://www.w3.org/2000/svg">
<path d="M18.5826 2.60585C17.9222 2.8985 17.2127 3.09624 16.4668 3.18562C17.2364 2.72512 17.8122 2.00034 18.0867 1.14652C17.3636 1.57601 16.5723 1.87832 15.747 2.04031C15.1921 1.44777 14.457 1.05503 13.656 0.923057C12.8549 0.791083 12.0327 0.927263 11.317 1.31045C10.6013 1.69364 10.0321 2.30241 9.69787 3.04223C9.36359 3.78204 9.28292 4.61153 9.46837 5.4019C8.00326 5.32834 6.56999 4.94753 5.26158 4.28419C3.95317 3.62086 2.79886 2.68982 1.87356 1.5515C1.55717 2.09726 1.37525 2.73003 1.37525 3.40393C1.3749 4.01059 1.52429 4.60796 1.81018 5.14304C2.09607 5.67812 2.50962 6.13436 3.01412 6.47128C2.42903 6.45266 1.85685 6.29456 1.34519 6.01015V6.0576C1.34514 6.90847 1.63946 7.73316 2.17822 8.39173C2.71699 9.0503 3.46701 9.50219 4.30102 9.67072C3.75825 9.81761 3.18919 9.83925 2.63684 9.734C2.87214 10.4661 3.3305 11.1063 3.94775 11.565C4.56499 12.0237 5.31022 12.2779 6.0791 12.292C4.77388 13.3166 3.16194 13.8724 1.5026 13.8699C1.20866 13.87 0.914972 13.8528 0.623047 13.8185C2.30738 14.9015 4.26807 15.4762 6.27051 15.474C13.0491 15.474 16.7547 9.85976 16.7547 4.9906C16.7547 4.83241 16.7508 4.67263 16.7436 4.51444C17.4644 3.99318 18.0866 3.34769 18.581 2.60822L18.5826 2.60585Z" fill="url(#paint0_linear_660_556)"/>
<defs>
<linearGradient id="paint0_linear_660_556" x1="0.623047" y1="1.30343" x2="6.81145" y2="12.7739" gradientUnits="userSpaceOnUse">
<stop stop-color="#FF2801"/>
<stop offset="1" stop-color="#FF6B0A"/>
</linearGradient>
</defs>
</svg>
